<svg width="18" height="18" viewBox="0 0 18 18" fill="none" xmlns="http://www.w3.org/2000/svg">
<path d="M4.15385 4.5H10.3846C11.4361 4.5 12.2885 5.35238 12.2885 6.40385V11.9423C12.2885 12.9938 11.4361 13.8462 10.3846 13.8462H4.15385C3.10238 13.8462 2.25 12.9938 2.25 11.9423V6.40385C2.25 5.35238 3.10238 4.5 4.15385 4.5Z" stroke="#1B1919"/>
<path d="M12.2802 6.33269L14.0882 5.60944C14.7094 5.36093 15.4145 5.66311 15.663 6.28437C15.7203 6.42747 15.7497 6.58019 15.7497 6.73432V11.6123C15.7497 12.2814 15.2073 12.8238 14.5381 12.8238C14.384 12.8238 14.2313 12.7944 14.0882 12.7372L12.2884 12.0172L12.2802 6.33269Z" stroke="#1B1919"/>
</svg>
