<svg width="23" height="11" viewBox="0 0 23 11" fill="none" xmlns="http://www.w3.org/2000/svg">
<path d="M1.86291 9.28794L2.2035 8.92188L2.20348 8.92186L1.86291 9.28794ZM3.59549 9.95116L3.5864 9.45124H3.58639L3.59549 9.95116ZM6.41693 9.3822L6.17545 8.94438L6.17543 8.94439L6.41693 9.3822ZM7.8124 6.88114L7.31244 6.87448L7.31243 6.87523L7.8124 6.88114ZM7.81242 6.87592L7.31242 6.87404V6.87592L7.81242 6.87592ZM7.81707 5.63576L7.68269 5.15415C7.46723 5.21427 7.31791 5.41019 7.31707 5.63388L7.81707 5.63576ZM11.2975 5.19112L11.2975 5.69112H11.2977L11.2975 5.19112ZM11.4186 5.19107L11.4186 4.69107L11.4184 4.69108L11.4186 5.19107ZM14.8988 5.63562L15.3988 5.63375C15.3979 5.41004 15.2486 5.21411 15.0331 5.154L14.8988 5.63562ZM14.9034 6.87585H15.4034L15.4034 6.87398L14.9034 6.87585ZM14.9034 6.88112L15.4034 6.87522L15.4034 6.87463L14.9034 6.88112ZM16.2989 9.38218L16.0574 9.81998L16.0574 9.82L16.2989 9.38218ZM19.1203 9.95109L19.1112 10.451L19.1112 10.451L19.1203 9.95109ZM20.8528 9.28787L20.5122 8.9218L20.5122 8.92181L20.8528 9.28787ZM21.6391 7.60752L22.1384 7.63446L22.1384 7.63409L21.6391 7.60752ZM21.6404 7.58243L21.1411 7.55573L21.1411 7.55586L21.6404 7.58243ZM21.6414 7.54746L22.1414 7.54845L22.1414 7.54746L21.6414 7.54746ZM19.9299 3.78705L20.2817 3.43174L20.2817 3.43174L19.9299 3.78705ZM11.3579 0.779784L11.3579 1.27978L11.3579 1.27978L11.3579 0.779784ZM9.29307 0.922381L9.22763 0.426682L9.21959 0.427743L9.21158 0.429065L9.29307 0.922381ZM6.03049 1.76845L5.87496 1.29325L5.86026 1.29807L5.84588 1.30378L6.03049 1.76845ZM2.78577 3.7871L2.43399 3.43178L2.43316 3.4326L2.78577 3.7871ZM1.07432 7.54751L0.574315 7.5475L0.574317 7.5485L1.07432 7.54751ZM1.07528 7.58245L1.57459 7.55605L1.57452 7.55483L1.07528 7.58245ZM1.07662 7.60768L0.577315 7.63408L0.577344 7.63462L1.07662 7.60768ZM7.82235 1.22529L7.69683 0.741298L7.82235 1.22529ZM1.52232 9.654C2.08946 10.1817 2.83013 10.4652 3.60459 10.4511L3.58639 9.45124C3.07092 9.46062 2.58097 9.27309 2.2035 8.92188L1.52232 9.654ZM3.60458 10.4511C4.9008 10.4275 5.89247 10.2425 6.65844 9.82L6.17543 8.94439C5.61732 9.25226 4.81589 9.42887 3.5864 9.45124L3.60458 10.4511ZM6.65842 9.82002C7.74824 9.21891 8.29684 8.19941 8.31236 6.88705L7.31243 6.87523C7.3006 7.87563 6.91008 8.53919 6.17545 8.94438L6.65842 9.82002ZM8.31235 6.88781C8.31243 6.88219 8.31242 6.87708 8.31242 6.87592H7.31242C7.31242 6.87825 7.31241 6.87665 7.31244 6.87448L8.31235 6.88781ZM8.31241 6.87779L8.31706 5.63763L7.31707 5.63388L7.31242 6.87404L8.31241 6.87779ZM7.95144 6.11736C8.52641 5.95694 9.71826 5.69112 11.2975 5.69112V4.69112C9.60799 4.69112 8.32422 4.97516 7.68269 5.15415L7.95144 6.11736ZM11.2977 5.69112L11.4188 5.69108L11.4184 4.69108L11.2973 4.69112L11.2977 5.69112ZM11.4186 5.69108C12.9981 5.69105 14.19 5.95702 14.7644 6.11724L15.0331 5.154C14.3923 4.97526 13.1084 4.69105 11.4186 4.69107L11.4186 5.69108ZM14.3988 5.63749L14.4034 6.87771L15.4034 6.87398L15.3988 5.63375L14.3988 5.63749ZM14.4034 6.87585C14.4034 6.87709 14.4034 6.88207 14.4035 6.88761L15.4034 6.87463C15.4034 6.87663 15.4034 6.8781 15.4034 6.87585L14.4034 6.87585ZM14.4034 6.88702C14.4189 8.19933 14.9675 9.21877 16.0574 9.81998L16.5404 8.94437C15.8057 8.53906 15.4152 7.87552 15.4034 6.87522L14.4034 6.88702ZM16.0574 9.82C16.8233 10.2425 17.815 10.4274 19.1112 10.451L19.1294 9.45117C17.8999 9.42883 17.0985 9.2522 16.5404 8.94436L16.0574 9.82ZM19.1112 10.451C19.8856 10.4651 20.6263 10.1816 21.1934 9.65393L20.5122 8.92181C20.1347 9.27302 19.6448 9.46053 19.1294 9.45117L19.1112 10.451ZM21.1934 9.65394C21.7609 9.12599 22.0966 8.40791 22.1384 7.63446L21.1398 7.58058C21.112 8.09549 20.89 8.57038 20.5122 8.9218L21.1934 9.65394ZM22.1384 7.63409L22.1397 7.609L21.1411 7.55586L21.1398 7.58095L22.1384 7.63409ZM22.1397 7.60912C22.1408 7.58825 22.1413 7.56798 22.1414 7.54845L21.1414 7.54648C21.1414 7.55029 21.1413 7.55335 21.1411 7.55573L22.1397 7.60912ZM22.1414 7.54746C22.1414 6.04026 21.4792 4.61735 20.2817 3.43174L19.5781 4.14236C20.6199 5.17384 21.1414 6.35154 21.1414 7.54746L22.1414 7.54746ZM20.2817 3.43174C18.2607 1.43088 14.9147 0.279761 11.3579 0.279784L11.3579 1.27978C14.7321 1.27976 17.795 2.37698 19.5781 4.14237L20.2817 3.43174ZM11.3579 0.279785C10.6804 0.279784 9.9637 0.329512 9.22763 0.426682L9.35851 1.41808C10.0557 1.32604 10.7285 1.27978 11.3579 1.27978L11.3579 0.279785ZM5.84588 1.30378C4.46217 1.85351 3.30887 2.56563 2.43399 3.43178L3.13754 4.14242C3.89606 3.39147 4.92605 2.74525 6.2151 2.23312L5.84588 1.30378ZM2.43316 3.4326C2.42459 3.44113 2.41553 3.45014 2.40634 3.45932L3.11345 4.16643C3.12153 4.15835 3.12964 4.15029 3.13838 4.14159L2.43316 3.4326ZM2.40634 3.45932C1.22626 4.63941 0.574341 6.05209 0.574316 7.5475L1.57432 7.54752C1.57434 6.36075 2.08777 5.19211 3.11345 4.16643L2.40634 3.45932ZM0.574317 7.5485C0.574356 7.56809 0.574862 7.58865 0.576047 7.61008L1.57452 7.55483C1.57442 7.55296 1.57432 7.55027 1.57432 7.54652L0.574317 7.5485ZM0.575982 7.60885L0.577315 7.63408L1.57592 7.58128L1.57459 7.55605L0.575982 7.60885ZM0.577344 7.63462C0.619079 8.40808 0.955197 9.1264 1.52234 9.65402L2.20348 8.92186C1.82601 8.5707 1.60367 8.09555 1.57589 7.58074L0.577344 7.63462ZM6.03049 1.76845C6.18601 2.24365 6.18601 2.24365 6.18601 2.24365C6.18602 2.24364 6.18602 2.24364 6.18603 2.24364C6.18606 2.24363 6.1861 2.24362 6.18616 2.2436C6.18628 2.24356 6.18647 2.2435 6.18673 2.24341C6.18724 2.24324 6.18803 2.24299 6.18909 2.24264C6.19121 2.24195 6.1944 2.24091 6.19861 2.23953C6.20704 2.23678 6.21956 2.23271 6.23577 2.22744C6.26819 2.21692 6.31533 2.20165 6.37394 2.18281C6.49121 2.1451 6.65413 2.09312 6.8367 2.03605C7.20477 1.92099 7.64238 1.7885 7.94786 1.70928L7.69683 0.741298C7.36525 0.827285 6.90693 0.966372 6.53834 1.08159C6.35257 1.13966 6.18698 1.1925 6.06781 1.23082C6.00821 1.24999 5.96015 1.26554 5.92693 1.27633C5.91032 1.28172 5.89741 1.28593 5.88861 1.2888C5.88421 1.29023 5.88084 1.29133 5.87855 1.29208C5.8774 1.29245 5.87653 1.29274 5.87593 1.29294C5.87563 1.29303 5.87539 1.29311 5.87523 1.29316C5.87515 1.29319 5.87509 1.29321 5.87504 1.29323C5.87502 1.29323 5.875 1.29324 5.87499 1.29324C5.87497 1.29325 5.87496 1.29325 6.03049 1.76845ZM7.94786 1.70928C8.25087 1.6307 8.60626 1.55734 8.8905 1.50299C9.03163 1.476 9.15326 1.45408 9.23943 1.43893C9.28249 1.43136 9.31662 1.42549 9.33982 1.42154C9.35142 1.41957 9.36028 1.41808 9.36616 1.4171C9.36909 1.4166 9.37128 1.41624 9.37269 1.41601C9.3734 1.41589 9.37391 1.4158 9.37422 1.41575C9.37437 1.41573 9.37448 1.41571 9.37454 1.4157C9.37456 1.41569 9.37458 1.41569 9.37458 1.41569C9.37458 1.41569 9.37458 1.41569 9.37458 1.41569C9.37457 1.41569 9.37455 1.4157 9.29307 0.922381C9.21158 0.429065 9.21156 0.429068 9.21154 0.429072C9.21153 0.429075 9.2115 0.429078 9.21148 0.429083C9.21143 0.429091 9.21137 0.4291 9.2113 0.429113C9.21115 0.429137 9.21095 0.42917 9.21071 0.429211C9.21021 0.429293 9.20951 0.429408 9.20862 0.429557C9.20684 0.429853 9.20427 0.430282 9.20094 0.430839C9.19429 0.431953 9.18462 0.433581 9.17218 0.435697C9.1473 0.439927 9.11133 0.446111 9.06628 0.454031C8.97623 0.469862 8.84962 0.492687 8.7027 0.520779C8.41086 0.576582 8.03088 0.654672 7.69683 0.741298L7.94786 1.70928Z" fill="white"/>
</svg>
