<svg width="36" height="36" viewBox="0 0 36 36" fill="none" xmlns="http://www.w3.org/2000/svg">
<path d="M18 36C27.9411 36 36 27.9411 36 18C36 8.05887 27.9411 0 18 0C8.05887 0 0 8.05887 0 18C0 27.9411 8.05887 36 18 36Z" fill="#2CB9B5"/>
<path fill-rule="evenodd" clip-rule="evenodd" d="M24.5 15.5C24.8344 16.3019 25.015 16.3631 25.625 16.5C26.3232 16.6563 26.5 17.1488 26.5 17.5V18.5C26.5 18.8513 26.3232 19.3438 25.625 19.5C25.015 19.6369 24.8344 19.6981 24.5 20.5C24.1875 21.25 24.2644 21.4488 24.5988 21.9769C24.9813 22.5819 24.7588 23.0544 24.51 23.3032L23.8032 24.01C23.5544 24.2594 23.0813 24.4813 22.4775 24.0988C21.9488 23.7644 21.7738 23.6875 21 24C20.2506 24.3032 20.1369 24.515 20 25.125C19.8431 25.8232 19.3513 26 19 26H18C17.6488 26 17.1563 25.8232 17 25.125C16.8631 24.515 16.7494 24.3032 16 24C15.2263 23.6875 15.0513 23.7644 14.5225 24.0994C13.9181 24.4819 13.4456 24.2594 13.1969 24.0107L12.49 23.3038C12.2412 23.055 12.0181 22.5813 12.4012 21.9775C12.7356 21.4488 12.8125 21.25 12.5 20.5C12.1656 19.6981 11.985 19.6369 11.375 19.5C10.6769 19.3438 10.5 18.8513 10.5 18.5V17.5C10.5 17.1488 10.6769 16.6563 11.375 16.5C11.985 16.3631 12.1656 16.3019 12.5 15.5C12.8125 14.75 12.7356 14.5513 12.4012 14.0225C12.0188 13.4188 12.2412 12.9456 12.4894 12.6969L13.1969 11.9894C13.4456 11.7412 13.9188 11.5188 14.5225 11.9012C15.0513 12.2356 15.2263 12.3125 16 12C16.7494 11.6975 16.8631 11.485 17 10.875C17.1563 10.1769 17.6488 10 18 10H19C19.3513 10 19.8431 10.1769 20 10.875C20.1369 11.485 20.2506 11.6975 21 12C21.7738 12.3125 21.9488 12.2356 22.4775 11.9006C23.0819 11.5181 23.5544 11.7406 23.8032 11.9894L24.51 12.6963C24.7588 12.945 24.9819 13.4188 24.5988 14.0225C24.2644 14.5513 24.1875 14.75 24.5 15.5ZM16 18C16 19.3806 17.1194 20.5 18.5 20.5C19.8806 20.5 21 19.3806 21 18C21 16.6194 19.8806 15.5 18.5 15.5C17.1194 15.5 16 16.6194 16 18Z" fill="white"/>
</svg>
