<svg width="36" height="36" viewBox="0 0 36 36" fill="none" xmlns="http://www.w3.org/2000/svg">
<path d="M18 36C27.9411 36 36 27.9411 36 18C36 8.05887 27.9411 0 18 0C8.05887 0 0 8.05887 0 18C0 27.9411 8.05887 36 18 36Z" fill="#FF9087"/>
<path fill-rule="evenodd" clip-rule="evenodd" d="M12.4705 12.4705C14.0517 10.8886 16.1963 10 18.4328 10C20.6693 10 22.8141 10.8886 24.3952 12.4705C25.977 14.0517 26.8656 16.1963 26.8656 18.4328C26.8656 20.6693 25.977 22.8141 24.3952 24.3952C22.814 25.977 20.6693 26.8656 18.4328 26.8656C16.1963 26.8656 14.0516 25.977 12.4705 24.3952C10.8886 22.814 10 20.6693 10 18.4328C10 16.1963 10.8886 14.0516 12.4705 12.4705ZM20.9626 20.119C21.3405 20.1388 21.6851 19.9048 21.8061 19.5459L21.8061 19.5459C21.8765 19.3277 21.8551 19.0905 21.7468 18.8882C21.6385 18.6866 21.4527 18.5371 21.2322 18.4747H21.233L19.2764 17.8257V14.2168C19.2764 13.7512 18.8985 13.3733 18.4328 13.3733C17.9672 13.3733 17.5893 13.7512 17.5893 14.2168V18.4328C17.5885 18.7957 17.8194 19.1182 18.1632 19.2336L20.693 20.0771C20.7807 20.1032 20.8709 20.1167 20.9626 20.119Z" fill="white"/>
</svg>
