<svg width="54" height="54" viewBox="0 0 54 54" fill="none" xmlns="http://www.w3.org/2000/svg">
<rect width="54" height="54" rx="15" fill="#4CA6A8"/>
<path d="M37 21.6667L25.6667 21.6667M25.6667 21.6667C25.6667 20.1939 24.4728 19 23 19C21.5272 19 20.3333 20.1939 20.3333 21.6667M25.6667 21.6667C25.6667 23.1394 24.4728 24.3333 23 24.3333C21.5272 24.3333 20.3333 23.1394 20.3333 21.6667M20.3333 21.6667L17 21.6667M37 32.3333L33.6667 32.3333M33.6667 32.3333C33.6667 30.8606 32.4728 29.6667 31 29.6667C29.5272 29.6667 28.3333 30.8606 28.3333 32.3333M33.6667 32.3333C33.6667 33.8061 32.4728 35 31 35C29.5272 35 28.3333 33.8061 28.3333 32.3333M28.3333 32.3333H17" stroke="white" stroke-width="1.5"/>
</svg>
